<svg width="640" height="480" style="background-color: rgb(238, 238, 238);"><g class="links"><line class="link" stroke-width="1" stroke="black" x1="336.45201713026916" y1="207.83863561125594" x2="366.02622266221755" y2="213.38763202104624"></line><line class="link" stroke-width="1" stroke="black" x1="336.45201713026916" y1="207.83863561125594" x2="339.73859211928266" y2="229.3842933255364"></line><line class="link" stroke-width="1" stroke="black" x1="366.02622266221755" y1="213.38763202104624" x2="339.73859211928266" y2="229.3842933255364"></line><line class="link" stroke-width="1" stroke="black" x1="397.57612976226136" y1="215.12092866986922" x2="397.57612976226136" y2="215.12092866986922"></line><line class="link" stroke-width="1" stroke="black" x1="397.57612976226136" y1="215.12092866986922" x2="423.61851102063156" y2="196.26285442221004"></line><line class="link" stroke-width="1" stroke="black" x1="397.57612976226136" y1="215.12092866986922" x2="423.61851102063156" y2="196.26285442221004"></line><line class="link" stroke-width="1" stroke="black" x1="397.57612976226136" y1="215.12092866986922" x2="380.9396430264362" y2="195.9692227074083"></line><line class="link" stroke-width="1" stroke="black" x1="397.57612976226136" y1="215.12092866986922" x2="366.02622266221755" y2="213.38763202104624"></line><line class="link" stroke-width="1" stroke="black" x1="397.57612976226136" y1="215.12092866986922" x2="380.22357741334577" y2="224.86647981490904"></line><line class="link" stroke-width="1" stroke="black" x1="380.9396430264362" y1="195.9692227074083" x2="366.02622266221755" y2="213.38763202104624"></line><line class="link" stroke-width="1" stroke="black" x1="380.9396430264362" y1="195.9692227074083" x2="380.22357741334577" y2="224.86647981490904"></line><line class="link" stroke-width="1" stroke="black" x1="366.02622266221755" y1="213.38763202104624" x2="380.22357741334577" y2="224.86647981490904"></line><line stroke-width="1" x1="363.7280719405504" y2="249.9361492666429"></line><line class="link" stroke-width="1" stroke="black" x1="397.57612976226136" y1="215.12092866986922" x2="426.5486777060578" y2="228.3464468991262"></line><line class="link" stroke-width="1" stroke="black" x1="374.27237364123675" y1="160.82303346001675" x2="380.9396430264362" y2="195.9692227074083"></line><line class="link" stroke-width="1" stroke="black" x1="374.27237364123675" y1="160.82303346001675" x2="374.27237364123675" y2="160.82303346001675"></line><line class="link" stroke-width="1" stroke="black" x1="380.9396430264362" y1="195.9692227074083" x2="374.27237364123675" y2="160.82303346001675"></line><line stroke-width="1" stroke="black" y1="266.15453445861385" y2="283.5917699470481"></line></g><g class="nodes"><circle class="node" r="11" fill="#1f77b4" cx="397.57612976226136" cy="215.12092866986922"></circle><circle class="node" r="4" fill="#1f77b4" cx="423.61851102063156" cy="196.26285442221004"></circle><circle class="node" r="3" fill="#ff7f0e" cx="374.27237364123675" cy="160.82303346001675"></circle><circle class="node" r="5" fill="#ff7f0e" cx="336.45201713026916" cy="207.83863561125594"></circle><circle class="node" r="8" fill="#ff7f0e" cx="380.9396430264362" cy="195.9692227074083"></circle><circle class="node" r="10" fill="#ff7f0e" cx="366.02622266221755" cy="213.38763202104624"></circle><circle class="node" r="4" fill="#1f77b4" cx="426.5486777060578" cy="228.3464468991262"></circle><circle class="node" r="5" fill="#ff7f0e" cx="339.73859211928266" cy="229.3842933255364"></circle><circle class="node" r="6" cx="380.22357741334577" cy="224.86647981490904" fill="#1f77b4"></circle></g></svg>