<svg width="640" height="480" style="background-color: rgb(238, 238, 238);"><g class="links"><line class="link" stroke-width="1" stroke="black" x1="345.0720907679023" y1="215.94064377141157" x2="375.13995314415337" y2="211.95342074958944"></line><line class="link" stroke-width="1" stroke="black" x1="345.0720907679023" y1="215.94064377141157" x2="354.62424928082254" y2="235.42873060758916"></line><line class="link" stroke-width="1" stroke="black" x1="375.13995314415337" y1="211.95342074958944" x2="354.62424928082254" y2="235.42873060758916"></line><line class="link" stroke-width="1" stroke="black" x1="406.5260029695256" y1="207.10647948625416" x2="406.5260029695256" y2="207.10647948625416"></line><line class="link" stroke-width="1" stroke="black" x1="406.5260029695256" y1="207.10647948625416" x2="430.24158576140815" y2="185.32731114787325"></line><line class="link" stroke-width="1" stroke="black" x1="406.5260029695256" y1="207.10647948625416" x2="430.24158576140815" y2="185.32731114787325"></line><line class="link" stroke-width="1" stroke="black" x1="406.5260029695256" y1="207.10647948625416" x2="386.0102197958175" y2="191.35447373438987"></line><line class="link" stroke-width="1" stroke="black" x1="406.5260029695256" y1="207.10647948625416" x2="375.13995314415337" y2="211.95342074958944"></line><line class="link" stroke-width="1" stroke="black" x1="406.5260029695256" y1="207.10647948625416" x2="391.4561575555984" y2="218.98261320777337"></line><line class="link" stroke-width="1" stroke="black" x1="386.0102197958175" y1="191.35447373438987" x2="375.13995314415337" y2="211.95342074958944"></line><line class="link" stroke-width="1" stroke="black" x1="386.0102197958175" y1="191.35447373438987" x2="391.4561575555984" y2="218.98261320777337"></line><line stroke-width="1" x1="363.7280719405504" y2="249.9361492666429"></line><line class="link" stroke-width="1" stroke="black" x1="406.5260029695256" y1="207.10647948625416" x2="434.1799786954669" y2="224.4823931008687"></line><line class="link" stroke-width="1" stroke="black" x1="367.64696708299346" y1="160.61975733858267" x2="386.0102197958175" y2="191.35447373438987"></line><line class="link" stroke-width="1" stroke="black" x1="367.64696708299346" y1="160.61975733858267" x2="367.64696708299346" y2="160.61975733858267"></line><line class="link" stroke-width="1" stroke="black" x1="386.0102197958175" y1="191.35447373438987" x2="367.64696708299346" y2="160.61975733858267"></line><line stroke-width="1" stroke="black" y1="266.15453445861385" y2="283.5917699470481"></line></g><g class="nodes"><circle class="node" r="11" fill="#1f77b4" cx="406.5260029695256" cy="207.10647948625416"></circle><circle class="node" r="4" fill="#1f77b4" cx="430.24158576140815" cy="185.32731114787325"></circle><circle class="node" r="3" fill="#ff7f0e" cx="367.64696708299346" cy="160.61975733858267"></circle><circle class="node" r="5" fill="#ff7f0e" cx="345.0720907679023" cy="215.94064377141157"></circle><circle class="node" r="8" fill="#ff7f0e" cx="386.0102197958175" cy="191.35447373438987"></circle><circle class="node" r="10" fill="#ff7f0e" cx="375.13995314415337" cy="211.95342074958944"></circle><circle class="node" r="4" fill="#1f77b4" cx="434.1799786954669" cy="224.4823931008687"></circle><circle class="node" r="5" fill="#ff7f0e" cx="354.62424928082254" cy="235.42873060758916"></circle><circle class="node" r="6" cx="391.4561575555984" cy="218.98261320777337" fill="#1f77b4"></circle></g></svg>