<svg width="640" height="480" style="background-color: rgb(238, 238, 238);"><g class="links"><line class="link" stroke-width="1" stroke="black" x1="352.16939942806704" y1="206.01119702231514" x2="382.06607727817965" y2="201.73929493956888"></line><line class="link" stroke-width="1" stroke="black" x1="352.16939942806704" y1="206.01119702231514" x2="362.0836786027248" y2="225.23148270438372"></line><line class="link" stroke-width="1" stroke="black" x1="382.06607727817965" y1="201.73929493956888" x2="362.0836786027248" y2="225.23148270438372"></line><line class="link" stroke-width="1" stroke="black" x1="413.01973659063526" y1="195.0249940596034" x2="413.01973659063526" y2="195.0249940596034"></line><line class="link" stroke-width="1" stroke="black" x1="413.01973659063526" y1="195.0249940596034" x2="434.81426189617304" y2="171.0298284860838"></line><line class="link" stroke-width="1" stroke="black" x1="413.01973659063526" y1="195.0249940596034" x2="434.81426189617304" y2="171.0298284860838"></line><line class="link" stroke-width="1" stroke="black" x1="413.01973659063526" y1="195.0249940596034" x2="391.66798585890405" y2="180.77295669315902"></line><line stroke="black" x1="408.3034620260407" x2="377.26897313940856"></line><line class="link" stroke-width="1" stroke="black" x1="413.01973659063526" y1="195.0249940596034" x2="398.701488124787" y2="208.59476588814462"></line><line class="link" stroke-width="1" stroke="black" x1="391.66798585890405" y1="180.77295669315902" x2="382.06607727817965" y2="201.73929493956888"></line><line class="link" stroke-width="1" stroke="black" x1="391.66798585890405" y1="180.77295669315902" x2="398.701488124787" y2="208.59476588814462"></line><line stroke-width="1" x1="363.7280719405504" y2="249.9361492666429"></line><line class="link" stroke-width="1" stroke="black" x1="413.01973659063526" y1="195.0249940596034" x2="444.25239722634694" y2="202.67642708389934"></line><line class="link" stroke-width="1" stroke="black" x1="373.37408810821" y1="149.90881048924928" x2="391.66798585890405" y2="180.77295669315902"></line><line class="link" stroke-width="1" stroke="black" x1="373.37408810821" y1="149.90881048924928" x2="373.37408810821" y2="149.90881048924928"></line><line class="link" stroke-width="1" stroke="black" x1="391.66798585890405" y1="180.77295669315902" x2="373.37408810821" y2="149.90881048924928"></line><line stroke-width="1" stroke="black" y1="266.15453445861385" y2="283.5917699470481"></line></g><g class="nodes"><circle class="node" r="11" fill="#1f77b4" cx="413.01973659063526" cy="195.0249940596034"></circle><circle class="node" r="4" fill="#1f77b4" cx="434.81426189617304" cy="171.0298284860838"></circle><circle class="node" r="3" fill="#ff7f0e" cx="373.37408810821" cy="149.90881048924928"></circle><circle class="node" r="5" fill="#ff7f0e" cx="352.16939942806704" cy="206.01119702231514"></circle><circle class="node" r="8" fill="#ff7f0e" cx="391.66798585890405" cy="180.77295669315902"></circle><circle class="node" r="10" fill="#ff7f0e" cx="382.06607727817965" cy="201.73929493956888"></circle><circle class="node" r="4" fill="#1f77b4" cx="444.25239722634694" cy="202.67642708389934"></circle><circle class="node" r="5" fill="#ff7f0e" cx="362.0836786027248" cy="225.23148270438372"></circle><circle class="node" r="6" cx="398.701488124787" cy="208.59476588814462" fill="#1f77b4"></circle></g></svg>